<svg width="428" height="186" viewBox="0 0 428 186" fill="none" xmlns="http://www.w3.org/2000/svg">
<g clip-path="url(#clip0_7_78)">
<path d="M0 12C0 5.37258 5.37258 0 12 0H120C126.627 0 132 5.37258 132 12V174C132 180.627 126.627 186 120 186H12C5.37258 186 0 180.627 0 174V12Z" fill="url(#paint0_linear_7_78)"/>
<path d="M12 0.5H120C126.351 0.5 131.5 5.64873 131.5 12V174C131.5 180.351 126.351 185.5 120 185.5H12C5.64873 185.5 0.5 180.351 0.5 174V12L0.514648 11.4082C0.82265 5.33195 5.8472 0.5 12 0.5Z" stroke="url(#paint1_linear_7_78)" stroke-opacity="0.4"/>
<path d="M16.5284 18.4062V17.2727H23.2827V18.4062H20.5597V26H19.2472V18.4062H16.5284ZM26.4808 26.1321C25.8672 26.1321 25.3317 25.9915 24.8743 25.7102C24.4169 25.429 24.0618 25.0355 23.8089 24.5298C23.5561 24.0241 23.4297 23.4332 23.4297 22.7571C23.4297 22.0781 23.5561 21.4844 23.8089 20.9759C24.0618 20.4673 24.4169 20.0724 24.8743 19.7912C25.3317 19.5099 25.8672 19.3693 26.4808 19.3693C27.0945 19.3693 27.63 19.5099 28.0874 19.7912C28.5447 20.0724 28.8999 20.4673 29.1527 20.9759C29.4055 21.4844 29.532 22.0781 29.532 22.7571C29.532 23.4332 29.4055 24.0241 29.1527 24.5298C28.8999 25.0355 28.5447 25.429 28.0874 25.7102C27.63 25.9915 27.0945 26.1321 26.4808 26.1321ZM26.4851 25.0625C26.8828 25.0625 27.2124 24.9574 27.4737 24.7472C27.7351 24.5369 27.9283 24.2571 28.0533 23.9077C28.1811 23.5582 28.245 23.1733 28.245 22.7528C28.245 22.3352 28.1811 21.9517 28.0533 21.6023C27.9283 21.25 27.7351 20.9673 27.4737 20.7543C27.2124 20.5412 26.8828 20.4347 26.4851 20.4347C26.0845 20.4347 25.7521 20.5412 25.4879 20.7543C25.2266 20.9673 25.032 21.25 24.9041 21.6023C24.7791 21.9517 24.7166 22.3352 24.7166 22.7528C24.7166 23.1733 24.7791 23.5582 24.9041 23.9077C25.032 24.2571 25.2266 24.5369 25.4879 24.7472C25.7521 24.9574 26.0845 25.0625 26.4851 25.0625ZM37.0575 26H34.2322V17.2727H37.147C38.0021 17.2727 38.7365 17.4474 39.3501 17.7969C39.9638 18.1435 40.4339 18.642 40.7607 19.2926C41.0902 19.9403 41.255 20.7173 41.255 21.6236C41.255 22.5327 41.0888 23.3139 40.7564 23.9673C40.4268 24.6207 39.9496 25.1236 39.3246 25.4759C38.6996 25.8253 37.9439 26 37.0575 26ZM35.549 24.8494H36.9851C37.6499 24.8494 38.2024 24.7244 38.6428 24.4744C39.0831 24.2216 39.4126 23.8565 39.6314 23.3793C39.8501 22.8991 39.9595 22.3139 39.9595 21.6236C39.9595 20.9389 39.8501 20.358 39.6314 19.8807C39.4155 19.4034 39.093 19.0412 38.6641 18.794C38.2351 18.5469 37.7024 18.4233 37.0661 18.4233H35.549V24.8494ZM45.5472 26.1321C44.9336 26.1321 44.3981 25.9915 43.9407 25.7102C43.4833 25.429 43.1282 25.0355 42.8754 24.5298C42.6225 24.0241 42.4961 23.4332 42.4961 22.7571C42.4961 22.0781 42.6225 21.4844 42.8754 20.9759C43.1282 20.4673 43.4833 20.0724 43.9407 19.7912C44.3981 19.5099 44.9336 19.3693 45.5472 19.3693C46.1609 19.3693 46.6964 19.5099 47.1538 19.7912C47.6112 20.0724 47.9663 20.4673 48.2191 20.9759C48.4719 21.4844 48.5984 22.0781 48.5984 22.7571C48.5984 23.4332 48.4719 24.0241 48.2191 24.5298C47.9663 25.0355 47.6112 25.429 47.1538 25.7102C46.6964 25.9915 46.1609 26.1321 45.5472 26.1321ZM45.5515 25.0625C45.9492 25.0625 46.2788 24.9574 46.5401 24.7472C46.8015 24.5369 46.9947 24.2571 47.1197 23.9077C47.2475 23.5582 47.3114 23.1733 47.3114 22.7528C47.3114 22.3352 47.2475 21.9517 47.1197 21.6023C46.9947 21.25 46.8015 20.9673 46.5401 20.7543C46.2788 20.5412 45.9492 20.4347 45.5515 20.4347C45.1509 20.4347 44.8185 20.5412 44.5543 20.7543C44.293 20.9673 44.0984 21.25 43.9705 21.6023C43.8455 21.9517 43.783 22.3352 43.783 22.7528C43.783 23.1733 43.8455 23.5582 43.9705 23.9077C44.0984 24.2571 44.293 24.5369 44.5543 24.7472C44.8185 24.9574 45.1509 25.0625 45.5515 25.0625Z" fill="white"/>
<path d="M16 43C16 39.6863 18.6863 37 22 37H110C113.314 37 116 39.6863 116 43V172H16V43Z" fill="url(#paint2_linear_7_78)" fill-opacity="0.85"/>
<path d="M102 48H30C27.7909 48 26 49.7909 26 52C26 54.2091 27.7909 56 30 56H102C104.209 56 106 54.2091 106 52C106 49.7909 104.209 48 102 48Z" fill="#525252" fill-opacity="0.75"/>
<path d="M65 60H30C27.7909 60 26 61.7909 26 64C26 66.2091 27.7909 68 30 68H65C67.2091 68 69 66.2091 69 64C69 61.7909 67.2091 60 65 60Z" fill="#525252" fill-opacity="0.75"/>
<path d="M148 12C148 5.37258 153.373 0 160 0H268C274.627 0 280 5.37258 280 12V174C280 180.627 274.627 186 268 186H160C153.373 186 148 180.627 148 174V12Z" fill="url(#paint3_linear_7_78)"/>
<path d="M160 0.5H268C274.351 0.5 279.5 5.64873 279.5 12V174C279.5 180.351 274.351 185.5 268 185.5H160C153.649 185.5 148.5 180.351 148.5 174V12L148.515 11.4082C148.823 5.33195 153.847 0.5 160 0.5Z" stroke="url(#paint4_linear_7_78)" stroke-opacity="0.4"/>
<path d="M166.276 17.2727V26H164.959V17.2727H166.276ZM169.365 22.1136V26H168.091V19.4545H169.314V20.5199H169.395C169.545 20.1733 169.781 19.8949 170.102 19.6847C170.426 19.4744 170.834 19.3693 171.325 19.3693C171.771 19.3693 172.162 19.4631 172.497 19.6506C172.832 19.8352 173.092 20.1108 173.277 20.4773C173.462 20.8437 173.554 21.2969 173.554 21.8366V26H172.28V21.9901C172.28 21.5156 172.156 21.1449 171.909 20.8778C171.662 20.608 171.322 20.473 170.891 20.473C170.595 20.473 170.332 20.5369 170.102 20.6648C169.875 20.7926 169.695 20.9801 169.561 21.2273C169.43 21.4716 169.365 21.767 169.365 22.1136ZM178.541 26V17.2727H181.652C182.331 17.2727 182.893 17.3963 183.339 17.6435C183.785 17.8906 184.119 18.2287 184.341 18.6577C184.562 19.0838 184.673 19.5639 184.673 20.098C184.673 20.6349 184.561 21.1179 184.336 21.5469C184.115 21.973 183.779 22.3111 183.331 22.5611C182.885 22.8082 182.324 22.9318 181.647 22.9318H179.508V21.8153H181.528C181.957 21.8153 182.305 21.7415 182.572 21.5938C182.839 21.4432 183.035 21.2386 183.16 20.9801C183.285 20.7216 183.348 20.4276 183.348 20.098C183.348 19.7685 183.285 19.4759 183.16 19.2202C183.035 18.9645 182.838 18.7642 182.568 18.6193C182.301 18.4744 181.949 18.402 181.511 18.402H179.858V26H178.541ZM186.114 26V19.4545H187.346V20.4943H187.414C187.533 20.142 187.744 19.8651 188.045 19.6634C188.349 19.4588 188.692 19.3565 189.076 19.3565C189.156 19.3565 189.249 19.3594 189.357 19.3651C189.468 19.3707 189.555 19.3778 189.617 19.3864V20.6051C189.566 20.5909 189.475 20.5753 189.344 20.5582C189.214 20.5384 189.083 20.5284 188.952 20.5284C188.651 20.5284 188.383 20.5923 188.147 20.7202C187.914 20.8452 187.729 21.0199 187.593 21.2443C187.457 21.4659 187.388 21.7187 187.388 22.0028V26H186.114ZM193.243 26.1321C192.629 26.1321 192.093 25.9915 191.636 25.7102C191.179 25.429 190.824 25.0355 190.571 24.5298C190.318 24.0241 190.191 23.4332 190.191 22.7571C190.191 22.0781 190.318 21.4844 190.571 20.9759C190.824 20.4673 191.179 20.0724 191.636 19.7912C192.093 19.5099 192.629 19.3693 193.243 19.3693C193.856 19.3693 194.392 19.5099 194.849 19.7912C195.306 20.0724 195.662 20.4673 195.914 20.9759C196.167 21.4844 196.294 22.0781 196.294 22.7571C196.294 23.4332 196.167 24.0241 195.914 24.5298C195.662 25.0355 195.306 25.429 194.849 25.7102C194.392 25.9915 193.856 26.1321 193.243 26.1321ZM193.247 25.0625C193.645 25.0625 193.974 24.9574 194.235 24.7472C194.497 24.5369 194.69 24.2571 194.815 23.9077C194.943 23.5582 195.007 23.1733 195.007 22.7528C195.007 22.3352 194.943 21.9517 194.815 21.6023C194.69 21.25 194.497 20.9673 194.235 20.7543C193.974 20.5412 193.645 20.4347 193.247 20.4347C192.846 20.4347 192.514 20.5412 192.25 20.7543C191.988 20.9673 191.794 21.25 191.666 21.6023C191.541 21.9517 191.478 22.3352 191.478 22.7528C191.478 23.1733 191.541 23.5582 191.666 23.9077C191.794 24.2571 191.988 24.5369 192.25 24.7472C192.514 24.9574 192.846 25.0625 193.247 25.0625ZM200.46 28.5909C199.94 28.5909 199.493 28.5227 199.118 28.3864C198.746 28.25 198.442 28.0696 198.206 27.8452C197.97 27.6207 197.794 27.375 197.678 27.108L198.773 26.6562C198.849 26.7812 198.952 26.9134 199.08 27.0526C199.21 27.1946 199.386 27.3153 199.608 27.4148C199.832 27.5142 200.121 27.5639 200.473 27.5639C200.956 27.5639 201.355 27.446 201.67 27.2102C201.986 26.9773 202.143 26.6051 202.143 26.0938V24.8068H202.062C201.986 24.946 201.875 25.1009 201.73 25.2713C201.588 25.4418 201.392 25.5895 201.142 25.7145C200.892 25.8395 200.567 25.902 200.166 25.902C199.649 25.902 199.183 25.7812 198.768 25.5398C198.357 25.2955 198.03 24.9361 197.788 24.4616C197.55 23.9844 197.43 23.3977 197.43 22.7017C197.43 22.0057 197.548 21.4091 197.784 20.9119C198.023 20.4148 198.349 20.0341 198.764 19.7699C199.179 19.5028 199.649 19.3693 200.175 19.3693C200.581 19.3693 200.909 19.4375 201.159 19.5739C201.409 19.7074 201.604 19.8636 201.743 20.0426C201.885 20.2216 201.994 20.3793 202.071 20.5156H202.165V19.4545H203.413V26.1449C203.413 26.7074 203.283 27.169 203.021 27.5298C202.76 27.8906 202.406 28.1577 201.96 28.331C201.517 28.5043 201.017 28.5909 200.46 28.5909ZM200.447 24.8452C200.814 24.8452 201.124 24.7599 201.376 24.5895C201.632 24.4162 201.825 24.169 201.956 23.848C202.089 23.5241 202.156 23.1364 202.156 22.6847C202.156 22.2443 202.091 21.8565 201.96 21.5213C201.83 21.1861 201.638 20.9247 201.385 20.7372C201.132 20.5469 200.82 20.4517 200.447 20.4517C200.064 20.4517 199.744 20.5511 199.489 20.75C199.233 20.946 199.04 21.2131 198.909 21.5511C198.781 21.8892 198.717 22.267 198.717 22.6847C198.717 23.1136 198.783 23.4901 198.913 23.8139C199.044 24.1378 199.237 24.3906 199.493 24.5724C199.751 24.7543 200.07 24.8452 200.447 24.8452ZM205.122 26V19.4545H206.354V20.4943H206.422C206.541 20.142 206.751 19.8651 207.053 19.6634C207.357 19.4588 207.7 19.3565 208.084 19.3565C208.163 19.3565 208.257 19.3594 208.365 19.3651C208.476 19.3707 208.562 19.3778 208.625 19.3864V20.6051C208.574 20.5909 208.483 20.5753 208.352 20.5582C208.222 20.5384 208.091 20.5284 207.96 20.5284C207.659 20.5284 207.391 20.5923 207.155 20.7202C206.922 20.8452 206.737 21.0199 206.601 21.2443C206.464 21.4659 206.396 21.7187 206.396 22.0028V26H205.122ZM212.314 26.1321C211.669 26.1321 211.114 25.9943 210.648 25.7188C210.185 25.4403 209.827 25.0497 209.574 24.5469C209.324 24.0412 209.199 23.4489 209.199 22.7699C209.199 22.0994 209.324 21.5085 209.574 20.9972C209.827 20.4858 210.179 20.0866 210.631 19.7997C211.086 19.5128 211.617 19.3693 212.225 19.3693C212.594 19.3693 212.952 19.4304 213.299 19.5526C213.645 19.6747 213.956 19.8665 214.232 20.1278C214.507 20.3892 214.725 20.7287 214.884 21.1463C215.043 21.5611 215.123 22.0653 215.123 22.6591V23.1108H209.919V22.1562H213.874C213.874 21.821 213.806 21.5241 213.669 21.2656C213.533 21.0043 213.341 20.7983 213.094 20.6477C212.85 20.4972 212.563 20.4219 212.233 20.4219C211.875 20.4219 211.563 20.5099 211.296 20.6861C211.032 20.8594 210.827 21.0866 210.682 21.3679C210.54 21.6463 210.469 21.9489 210.469 22.2756V23.0213C210.469 23.4588 210.546 23.831 210.699 24.1378C210.855 24.4446 211.073 24.679 211.351 24.8409C211.63 25 211.955 25.0795 212.327 25.0795C212.569 25.0795 212.789 25.0455 212.988 24.9773C213.186 24.9062 213.358 24.8011 213.503 24.6619C213.648 24.5227 213.759 24.3509 213.836 24.1463L215.042 24.3636C214.945 24.7187 214.772 25.0298 214.522 25.2969C214.275 25.5611 213.963 25.767 213.588 25.9148C213.216 26.0597 212.792 26.1321 212.314 26.1321ZM221.441 21.0526L220.286 21.2571C220.238 21.1094 220.161 20.9687 220.056 20.8352C219.954 20.7017 219.815 20.5923 219.638 20.5071C219.462 20.4219 219.242 20.3793 218.978 20.3793C218.617 20.3793 218.316 20.4602 218.075 20.6222C217.833 20.7812 217.712 20.9872 217.712 21.2401C217.712 21.4588 217.793 21.6349 217.955 21.7685C218.117 21.902 218.379 22.0114 218.739 22.0966L219.779 22.3352C220.381 22.4744 220.83 22.6889 221.126 22.9787C221.421 23.2685 221.569 23.6449 221.569 24.108C221.569 24.5 221.455 24.8494 221.228 25.1562C221.004 25.4602 220.69 25.6989 220.286 25.8722C219.886 26.0455 219.421 26.1321 218.893 26.1321C218.16 26.1321 217.562 25.9759 217.099 25.6634C216.636 25.348 216.352 24.9006 216.246 24.321L217.478 24.1335C217.555 24.4545 217.712 24.6974 217.951 24.8622C218.19 25.0241 218.501 25.1051 218.884 25.1051C219.302 25.1051 219.636 25.0185 219.886 24.8452C220.136 24.669 220.261 24.4545 220.261 24.2017C220.261 23.9972 220.184 23.8253 220.031 23.6861C219.88 23.5469 219.648 23.4418 219.336 23.3707L218.228 23.1278C217.617 22.9886 217.165 22.767 216.873 22.4631C216.583 22.1591 216.438 21.7741 216.438 21.3082C216.438 20.9219 216.546 20.5838 216.762 20.294C216.978 20.0043 217.276 19.7784 217.657 19.6165C218.038 19.4517 218.474 19.3693 218.965 19.3693C219.673 19.3693 220.229 19.5227 220.636 19.8295C221.042 20.1335 221.31 20.5412 221.441 21.0526ZM227.875 21.0526L226.72 21.2571C226.672 21.1094 226.595 20.9687 226.49 20.8352C226.387 20.7017 226.248 20.5923 226.072 20.5071C225.896 20.4219 225.676 20.3793 225.412 20.3793C225.051 20.3793 224.75 20.4602 224.508 20.6222C224.267 20.7812 224.146 20.9872 224.146 21.2401C224.146 21.4588 224.227 21.6349 224.389 21.7685C224.551 21.902 224.812 22.0114 225.173 22.0966L226.213 22.3352C226.815 22.4744 227.264 22.6889 227.559 22.9787C227.855 23.2685 228.002 23.6449 228.002 24.108C228.002 24.5 227.889 24.8494 227.662 25.1562C227.437 25.4602 227.123 25.6989 226.72 25.8722C226.319 26.0455 225.855 26.1321 225.326 26.1321C224.593 26.1321 223.995 25.9759 223.532 25.6634C223.069 25.348 222.785 24.9006 222.68 24.321L223.912 24.1335C223.988 24.4545 224.146 24.6974 224.385 24.8622C224.623 25.0241 224.934 25.1051 225.318 25.1051C225.735 25.1051 226.069 25.0185 226.319 24.8452C226.569 24.669 226.694 24.4545 226.694 24.2017C226.694 23.9972 226.618 23.8253 226.464 23.6861C226.314 23.5469 226.082 23.4418 225.77 23.3707L224.662 23.1278C224.051 22.9886 223.599 22.767 223.306 22.4631C223.017 22.1591 222.872 21.7741 222.872 21.3082C222.872 20.9219 222.98 20.5838 223.196 20.294C223.412 20.0043 223.71 19.7784 224.091 19.6165C224.471 19.4517 224.907 19.3693 225.399 19.3693C226.106 19.3693 226.663 19.5227 227.069 19.8295C227.475 20.1335 227.744 20.5412 227.875 21.0526Z" fill="white"/>
<path d="M164 43C164 39.6863 166.686 37 170 37H258C261.314 37 264 39.6863 264 43V172H164V43Z" fill="url(#paint5_linear_7_78)" fill-opacity="0.85"/>
<path d="M250 48H178C175.791 48 174 49.7909 174 52C174 54.2091 175.791 56 178 56H250C252.209 56 254 54.2091 254 52C254 49.7909 252.209 48 250 48Z" fill="#525252" fill-opacity="0.75"/>
<path d="M202 60H178C175.791 60 174 61.7909 174 64C174 66.2091 175.791 68 178 68H202C204.209 68 206 66.2091 206 64C206 61.7909 204.209 60 202 60Z" fill="#525252" fill-opacity="0.75"/>
<path d="M296 12C296 5.37258 301.373 0 308 0H416C422.627 0 428 5.37258 428 12V174C428 180.627 422.627 186 416 186H308C301.373 186 296 180.627 296 174V12Z" fill="url(#paint6_linear_7_78)"/>
<path d="M308 0.5H416C422.351 0.5 427.5 5.64873 427.5 12V174C427.5 180.351 422.351 185.5 416 185.5H308C301.649 185.5 296.5 180.351 296.5 174V12L296.515 11.4082C296.823 5.33195 301.847 0.5 308 0.5Z" stroke="url(#paint7_linear_7_78)" stroke-opacity="0.4"/>
<path d="M320.207 20.1107H318.878C318.827 19.8266 318.732 19.5766 318.592 19.3607C318.453 19.1448 318.283 18.9615 318.081 18.811C317.879 18.6604 317.653 18.5468 317.403 18.4701C317.156 18.3934 316.893 18.355 316.615 18.355C316.112 18.355 315.662 18.4814 315.264 18.7343C314.869 18.9871 314.557 19.3579 314.327 19.8465C314.099 20.3351 313.986 20.9317 313.986 21.6363C313.986 22.3465 314.099 22.9459 314.327 23.4346C314.557 23.9232 314.871 24.2925 315.268 24.5425C315.666 24.7925 316.114 24.9175 316.611 24.9175C316.886 24.9175 317.148 24.8806 317.395 24.8067C317.645 24.73 317.871 24.6178 318.072 24.4701C318.274 24.3223 318.445 24.1419 318.584 23.9289C318.726 23.713 318.824 23.4658 318.878 23.1874L320.207 23.1917C320.136 23.6206 319.999 24.0155 319.794 24.3763C319.592 24.7343 319.332 25.0439 319.014 25.3053C318.699 25.5638 318.338 25.7641 317.932 25.9061C317.526 26.0482 317.082 26.1192 316.602 26.1192C315.847 26.1192 315.173 25.9402 314.582 25.5823C313.991 25.2215 313.526 24.7059 313.185 24.0354C312.847 23.365 312.678 22.5652 312.678 21.6363C312.678 20.7044 312.848 19.9047 313.189 19.2371C313.53 18.5667 313.996 18.0525 314.587 17.6945C315.178 17.3337 315.849 17.1533 316.602 17.1533C317.065 17.1533 317.497 17.2201 317.898 17.3536C318.301 17.4843 318.663 17.6775 318.984 17.9331C319.305 18.186 319.571 18.4956 319.781 18.8621C319.991 19.2258 320.134 19.6419 320.207 20.1107ZM324.438 26.132C323.824 26.132 323.289 25.9914 322.831 25.7101C322.374 25.4289 322.019 25.0354 321.766 24.5297C321.513 24.024 321.387 23.4331 321.387 22.757C321.387 22.078 321.513 21.4843 321.766 20.9758C322.019 20.4672 322.374 20.0723 322.831 19.7911C323.289 19.5098 323.824 19.3692 324.438 19.3692C325.051 19.3692 325.587 19.5098 326.044 19.7911C326.502 20.0723 326.857 20.4672 327.11 20.9758C327.363 21.4843 327.489 22.078 327.489 22.757C327.489 23.4331 327.363 24.024 327.11 24.5297C326.857 25.0354 326.502 25.4289 326.044 25.7101C325.587 25.9914 325.051 26.132 324.438 26.132ZM324.442 25.0624C324.84 25.0624 325.169 24.9573 325.431 24.7471C325.692 24.5368 325.885 24.257 326.01 23.9076C326.138 23.5581 326.202 23.1732 326.202 22.7527C326.202 22.3351 326.138 21.9516 326.01 21.6022C325.885 21.2499 325.692 20.9672 325.431 20.7542C325.169 20.5411 324.84 20.4346 324.442 20.4346C324.042 20.4346 323.709 20.5411 323.445 20.7542C323.184 20.9672 322.989 21.2499 322.861 21.6022C322.736 21.9516 322.674 22.3351 322.674 22.7527C322.674 23.1732 322.736 23.5581 322.861 23.9076C322.989 24.257 323.184 24.5368 323.445 24.7471C323.709 24.9573 324.042 25.0624 324.442 25.0624ZM328.911 25.9999V19.4544H330.134V20.5198H330.215C330.352 20.159 330.575 19.8777 330.884 19.676C331.194 19.4715 331.565 19.3692 331.996 19.3692C332.434 19.3692 332.8 19.4715 333.096 19.676C333.394 19.8806 333.614 20.1618 333.756 20.5198H333.825C333.981 20.1704 334.229 19.8919 334.57 19.6846C334.911 19.4743 335.317 19.3692 335.789 19.3692C336.383 19.3692 336.867 19.5553 337.242 19.9275C337.62 20.2996 337.809 20.8607 337.809 21.6107V25.9999H336.535V21.73C336.535 21.2868 336.414 20.9658 336.173 20.7669C335.931 20.5681 335.643 20.4687 335.308 20.4687C334.893 20.4687 334.57 20.5965 334.34 20.8522C334.11 21.105 333.995 21.4303 333.995 21.828V25.9999H332.725V21.649C332.725 21.2939 332.614 21.0084 332.393 20.7925C332.171 20.5766 331.883 20.4687 331.528 20.4687C331.286 20.4687 331.063 20.5326 330.859 20.6604C330.657 20.7854 330.494 20.9601 330.369 21.1846C330.246 21.409 330.185 21.6689 330.185 21.9644V25.9999H328.911ZM339.517 28.4544V19.4544H340.761V20.5155H340.868C340.941 20.3792 341.048 20.2215 341.187 20.0425C341.326 19.8635 341.52 19.7073 341.767 19.5738C342.014 19.4374 342.341 19.3692 342.747 19.3692C343.275 19.3692 343.747 19.5027 344.162 19.7698C344.576 20.0368 344.902 20.4218 345.137 20.9246C345.376 21.4275 345.495 22.0326 345.495 22.74C345.495 23.4473 345.377 24.0539 345.142 24.5596C344.906 25.0624 344.582 25.4502 344.17 25.7229C343.758 25.9928 343.288 26.1277 342.76 26.1277C342.362 26.1277 342.037 26.061 341.784 25.9275C341.534 25.7939 341.338 25.6377 341.196 25.4587C341.054 25.2797 340.944 25.1206 340.868 24.9814H340.791V28.4544H339.517ZM340.765 22.7272C340.765 23.1874 340.832 23.5908 340.966 23.9374C341.099 24.284 341.292 24.5553 341.545 24.7513C341.798 24.9445 342.108 25.0411 342.474 25.0411C342.855 25.0411 343.173 24.9402 343.429 24.7385C343.684 24.534 343.877 24.257 344.008 23.9076C344.142 23.5581 344.208 23.1647 344.208 22.7272C344.208 22.2954 344.143 21.9076 344.012 21.5638C343.885 21.2201 343.691 20.9488 343.433 20.7499C343.177 20.551 342.858 20.4516 342.474 20.4516C342.105 20.4516 341.792 20.5468 341.537 20.7371C341.284 20.9275 341.092 21.1931 340.961 21.534C340.831 21.8749 340.765 22.2726 340.765 22.7272ZM348.197 17.2726V25.9999H346.923V17.2726H348.197ZM352.732 26.132C352.087 26.132 351.532 25.9942 351.066 25.7187C350.603 25.4402 350.245 25.0496 349.992 24.5468C349.742 24.0411 349.617 23.4488 349.617 22.7698C349.617 22.0993 349.742 21.5084 349.992 20.9971C350.245 20.4857 350.597 20.0865 351.049 19.7996C351.504 19.5127 352.035 19.3692 352.643 19.3692C353.012 19.3692 353.37 19.4303 353.717 19.5525C354.063 19.6746 354.374 19.8664 354.65 20.1277C354.925 20.3891 355.143 20.7286 355.302 21.1462C355.461 21.561 355.54 22.0652 355.54 22.659V23.1107H350.337V22.1561H354.292C354.292 21.8209 354.224 21.524 354.087 21.2655C353.951 21.0042 353.759 20.7982 353.512 20.6476C353.268 20.4971 352.981 20.4218 352.651 20.4218C352.293 20.4218 351.981 20.5098 351.714 20.686C351.45 20.8593 351.245 21.0865 351.1 21.3678C350.958 21.6462 350.887 21.9488 350.887 22.2755V23.0212C350.887 23.4587 350.964 23.8309 351.117 24.1377C351.273 24.4445 351.491 24.6789 351.769 24.8408C352.048 24.9999 352.373 25.0794 352.745 25.0794C352.987 25.0794 353.207 25.0454 353.406 24.9772C353.604 24.9061 353.776 24.801 353.921 24.6618C354.066 24.5226 354.177 24.3508 354.254 24.1462L355.46 24.3635C355.363 24.7186 355.19 25.0297 354.94 25.2968C354.692 25.561 354.381 25.7669 354.006 25.9147C353.634 26.0596 353.21 26.132 352.732 26.132ZM360.01 19.4544V20.4772H356.434V19.4544H360.01ZM357.393 17.8863H358.667V24.078C358.667 24.3252 358.704 24.5113 358.778 24.6363C358.852 24.7584 358.947 24.8422 359.064 24.8877C359.183 24.9303 359.312 24.9516 359.451 24.9516C359.554 24.9516 359.643 24.9445 359.72 24.9303C359.797 24.9161 359.856 24.9047 359.899 24.8962L360.129 25.9488C360.055 25.9772 359.95 26.0056 359.814 26.034C359.677 26.0652 359.507 26.0823 359.302 26.0851C358.967 26.0908 358.654 26.0311 358.365 25.9061C358.075 25.7811 357.841 25.588 357.662 25.3266C357.483 25.0652 357.393 24.7371 357.393 24.3422V17.8863ZM364.17 26.132C363.525 26.132 362.969 25.9942 362.504 25.7187C362.04 25.4402 361.683 25.0496 361.43 24.5468C361.18 24.0411 361.055 23.4488 361.055 22.7698C361.055 22.0993 361.18 21.5084 361.43 20.9971C361.683 20.4857 362.035 20.0865 362.487 19.7996C362.941 19.5127 363.472 19.3692 364.08 19.3692C364.45 19.3692 364.808 19.4303 365.154 19.5525C365.501 19.6746 365.812 19.8664 366.087 20.1277C366.363 20.3891 366.58 20.7286 366.739 21.1462C366.898 21.561 366.978 22.0652 366.978 22.659V23.1107H361.775V22.1561H365.729C365.729 21.8209 365.661 21.524 365.525 21.2655C365.388 21.0042 365.197 20.7982 364.95 20.6476C364.705 20.4971 364.418 20.4218 364.089 20.4218C363.731 20.4218 363.418 20.5098 363.151 20.686C362.887 20.8593 362.683 21.0865 362.538 21.3678C362.396 21.6462 362.325 21.9488 362.325 22.2755V23.0212C362.325 23.4587 362.401 23.8309 362.555 24.1377C362.711 24.4445 362.928 24.6789 363.207 24.8408C363.485 24.9999 363.81 25.0794 364.183 25.0794C364.424 25.0794 364.644 25.0454 364.843 24.9772C365.042 24.9061 365.214 24.801 365.359 24.6618C365.504 24.5226 365.614 24.3508 365.691 24.1462L366.897 24.3635C366.8 24.7186 366.627 25.0297 366.377 25.2968C366.13 25.561 365.819 25.7669 365.444 25.9147C365.072 26.0596 364.647 26.132 364.17 26.132Z" fill="white"/>
<path d="M312 43C312 39.6863 314.686 37 318 37H406C409.314 37 412 39.6863 412 43V172H312V43Z" fill="url(#paint8_linear_7_78)" fill-opacity="0.85"/>
<path d="M398 48H326C323.791 48 322 49.7909 322 52C322 54.2091 323.791 56 326 56H398C400.209 56 402 54.2091 402 52C402 49.7909 400.209 48 398 48Z" fill="#525252" fill-opacity="0.75"/>
<path d="M382 60H326C323.791 60 322 61.7909 322 64C322 66.2091 323.791 68 326 68H382C384.209 68 386 66.2091 386 64C386 61.7909 384.209 60 382 60Z" fill="#525252" fill-opacity="0.75"/>
<g filter="url(#filter3_d_7_78)">
<path d="M122 75C122 68.3726 127.373 63 134 63H294C300.627 63 306 68.3726 306 75V111C306 117.627 300.627 123 294 123H134C127.373 123 122 117.627 122 111V75Z" fill="url(#paint9_linear_7_78)"/>
<path d="M134 63.5H294C300.351 63.5 305.5 68.6487 305.5 75V111C305.5 117.351 300.351 122.5 294 122.5H134C127.649 122.5 122.5 117.351 122.5 111V75C122.5 68.6487 127.649 63.5 134 63.5Z" stroke="url(#paint10_linear_7_78)" stroke-opacity="0.4"/>
<path d="M143 89C145.761 89 148 86.7614 148 84C148 81.2386 145.761 79 143 79C140.239 79 138 81.2386 138 84C138 86.7614 140.239 89 143 89Z" fill="#00FF88" fill-opacity="0.2"/>
<path d="M286 95H140C138.895 95 138 95.8954 138 97C138 98.1046 138.895 99 140 99H286C287.105 99 288 98.1046 288 97C288 95.8954 287.105 95 286 95Z" fill="#00FF88" fill-opacity="0.15"/>
<path d="M218 103H140C138.895 103 138 103.895 138 105C138 106.105 138.895 107 140 107H218C219.105 107 220 106.105 220 105C220 103.895 219.105 103 218 103Z" fill="#00FF88" fill-opacity="0.15"/>
</g>
</g>
<defs>
<filter id="filter3_d_7_78" x="98" y="39" width="232" height="108" filterUnits="userSpaceOnUse" color-interpolation-filters="sRGB">
<feFlood flood-opacity="0" result="BackgroundImageFix"/>
<feColorMatrix in="SourceAlpha" type="matrix" values="0 0 0 0 0 0 0 0 0 0 0 0 0 0 0 0 0 0 127 0" result="hardAlpha"/>
<feOffset dy="4"/>
<feGaussianBlur stdDeviation="7.5"/>
<feComposite in2="hardAlpha" operator="out"/>
<feColorMatrix type="matrix" values="0 0 0 0 0 0 0 0 0 0 0 0 0 0 0 0 0 0 0.2 0"/>
<feBlend mode="normal" in2="BackgroundImageFix" result="effect1_dropShadow_7_78"/>
<feBlend mode="normal" in="SourceGraphic" in2="effect1_dropShadow_7_78" result="shape"/>
</filter>
<linearGradient id="paint0_linear_7_78" x1="0" y1="93" x2="132" y2="93" gradientUnits="userSpaceOnUse">
<stop stop-color="white" stop-opacity="0.1"/>
<stop offset="1" stop-color="white" stop-opacity="0.05"/>
</linearGradient>
<linearGradient id="paint1_linear_7_78" x1="-7.98465e-08" y1="3.31105e-06" x2="137.169" y2="3.89384" gradientUnits="userSpaceOnUse">
<stop stop-color="white" stop-opacity="0.15"/>
<stop offset="1" stop-color="#00FF88" stop-opacity="0.05"/>
</linearGradient>
<linearGradient id="paint2_linear_7_78" x1="66" y1="37" x2="66" y2="172" gradientUnits="userSpaceOnUse">
<stop stop-color="white" stop-opacity="0.15"/>
<stop offset="1" stop-color="white" stop-opacity="0"/>
</linearGradient>
<linearGradient id="paint3_linear_7_78" x1="148" y1="93" x2="280" y2="93" gradientUnits="userSpaceOnUse">
<stop stop-color="white" stop-opacity="0.1"/>
<stop offset="1" stop-color="white" stop-opacity="0.05"/>
</linearGradient>
<linearGradient id="paint4_linear_7_78" x1="148" y1="3.31105e-06" x2="285.169" y2="3.89384" gradientUnits="userSpaceOnUse">
<stop stop-color="white" stop-opacity="0.15"/>
<stop offset="1" stop-color="#00FF88" stop-opacity="0.05"/>
</linearGradient>
<linearGradient id="paint5_linear_7_78" x1="214" y1="37" x2="214" y2="172" gradientUnits="userSpaceOnUse">
<stop stop-color="white" stop-opacity="0.15"/>
<stop offset="1" stop-color="white" stop-opacity="0"/>
</linearGradient>
<linearGradient id="paint6_linear_7_78" x1="296" y1="93" x2="428" y2="93" gradientUnits="userSpaceOnUse">
<stop stop-color="white" stop-opacity="0.1"/>
<stop offset="1" stop-color="white" stop-opacity="0.05"/>
</linearGradient>
<linearGradient id="paint7_linear_7_78" x1="296" y1="3.31105e-06" x2="433.169" y2="3.89384" gradientUnits="userSpaceOnUse">
<stop stop-color="white" stop-opacity="0.15"/>
<stop offset="1" stop-color="#00FF88" stop-opacity="0.05"/>
</linearGradient>
<linearGradient id="paint8_linear_7_78" x1="362" y1="37" x2="362" y2="172" gradientUnits="userSpaceOnUse">
<stop stop-color="white" stop-opacity="0.15"/>
<stop offset="1" stop-color="white" stop-opacity="0"/>
</linearGradient>
<linearGradient id="paint9_linear_7_78" x1="122" y1="93" x2="306" y2="93" gradientUnits="userSpaceOnUse">
<stop stop-color="#00FF88" stop-opacity="0.1"/>
<stop offset="1" stop-color="#00FF88" stop-opacity="0.01"/>
</linearGradient>
<linearGradient id="paint10_linear_7_78" x1="122" y1="63" x2="310.523" y2="86.1255" gradientUnits="userSpaceOnUse">
<stop stop-color="#00FF88" stop-opacity="0.15"/>
<stop offset="1" stop-color="#00FF88" stop-opacity="0.05"/>
</linearGradient>
<clipPath id="clip0_7_78">
<rect width="428" height="186" fill="white"/>
</clipPath>
</defs>
</svg>
