<svg width="500" height="500" viewBox="0 0 500 500" fill="none" xmlns="http://www.w3.org/2000/svg">
<g clip-path="url(#clip0_8_251)">
<path d="M448.096 72.6563L427.393 51.9531C426.611 51.1719 425.635 50.8301 424.609 50.8301C423.584 50.8301 422.607 51.2207 421.826 51.9531L384.668 89.1113C368.515 78.1667 349.444 72.3314 329.932 72.3633C304.932 72.3633 279.932 81.8848 260.84 100.977L211.084 150.732C210.357 151.467 209.949 152.458 209.949 153.491C209.949 154.524 210.357 155.516 211.084 156.25L343.75 288.916C344.531 289.697 345.508 290.039 346.533 290.039C347.51 290.039 348.535 289.648 349.316 288.916L399.072 239.16C432.715 205.469 436.67 153.369 410.938 115.381L448.096 78.2227C449.609 76.6602 449.609 74.1699 448.096 72.6563ZM282.666 266.943C281.932 266.216 280.94 265.809 279.907 265.809C278.874 265.809 277.883 266.216 277.148 266.943L244.629 299.463L200.537 255.371L233.105 222.803C234.619 221.289 234.619 218.799 233.105 217.285L215.332 199.512C214.598 198.785 213.606 198.377 212.573 198.377C211.54 198.377 210.549 198.785 209.814 199.512L177.246 232.08L156.25 211.084C155.886 210.719 155.451 210.432 154.973 210.239C154.495 210.046 153.982 209.951 153.467 209.961C152.49 209.961 151.465 210.352 150.684 211.084L100.977 260.84C67.334 294.482 63.3789 346.631 89.1113 384.619L51.9531 421.777C51.2262 422.512 50.8184 423.503 50.8184 424.536C50.8184 425.569 51.2262 426.561 51.9531 427.295L72.6563 447.998C73.4375 448.779 74.4141 449.121 75.4395 449.121C76.4648 449.121 77.4414 448.73 78.2227 447.998L115.381 410.84C131.836 422.022 150.977 427.588 170.117 427.588C195.117 427.588 220.117 418.066 239.209 398.975L288.965 349.219C290.479 347.705 290.479 345.215 288.965 343.701L267.969 322.705L300.537 290.137C302.051 288.623 302.051 286.133 300.537 284.619L282.666 266.943Z" fill="#00FF88"/>
</g>
<defs>
<clipPath id="clip0_8_251">
<rect width="500" height="500" fill="white"/>
</clipPath>
</defs>
</svg>
