<svg width="500" height="500" viewBox="0 0 500 500" fill="none" xmlns="http://www.w3.org/2000/svg">
<path fill-rule="evenodd" clip-rule="evenodd" d="M106.912 50C89.3998 50 75.2061 64.2 75.2061 81.7125V418.219C75.2061 435.738 89.3998 449.931 106.912 449.931H393C410.506 449.931 424.712 435.738 424.712 418.219V176.937L306.569 50L106.912 50Z" fill="#45B058"/>
<path d="M201.912 319.981C202.7 320.881 203.15 322.006 203.15 323.243C203.15 325.606 201.238 327.743 198.756 327.743C197.631 327.743 196.394 327.293 195.606 326.281C191.219 320.993 183.788 317.612 176.813 317.612C160.381 317.612 147.894 330.218 147.894 348.112C147.894 365.893 160.388 378.606 176.813 378.606C183.9 378.606 190.875 375.568 195.606 370.05C196.388 369.15 197.631 368.593 198.756 368.593C201.35 368.593 203.15 370.837 203.15 373.206C203.15 374.331 202.7 375.456 201.912 376.356C196.056 382.431 188.069 386.937 176.819 386.937C155.213 386.937 138.219 371.181 138.219 348.112C138.219 325.043 155.213 309.287 176.819 309.287C188.069 309.293 196.169 313.793 201.912 319.981ZM244.425 386.943C233.288 386.943 224.506 383.231 218.094 377.6C217.081 376.7 216.631 375.462 216.631 374.225C216.631 371.968 218.319 369.493 221.019 369.493C221.919 369.493 222.931 369.718 223.719 370.393C228.894 375.012 236.094 378.606 244.763 378.606C258.156 378.606 262.431 371.406 262.431 365.662C262.431 346.306 217.981 357 217.981 330.212C217.981 317.837 229.006 309.393 243.75 309.393C253.425 309.393 261.756 312.312 267.831 317.381C268.844 318.281 269.406 319.518 269.406 320.756C269.406 323.006 267.494 325.256 265.013 325.256C264.113 325.256 263.1 324.918 262.312 324.243C256.8 319.743 249.938 317.718 243.069 317.718C234.069 317.718 227.65 322.556 227.65 329.65C227.65 346.531 272.1 336.85 272.1 364.875C272.106 375.8 264.681 386.943 244.425 386.943ZM350.637 316.606L324.644 381.2C323.406 384.237 320.363 386.262 317.219 386.262H316.994C313.731 386.262 310.694 384.237 309.45 381.2L283.562 316.606C283.337 316.043 283.225 315.481 283.225 314.806C283.225 312.556 285.244 309.85 288.287 309.85C290.2 309.85 292 310.975 292.788 312.887L317.094 375.337L341.4 312.887C342.075 311.087 343.875 309.85 345.9 309.85C348.825 309.85 350.963 312.212 350.963 314.806C350.969 315.368 350.856 316.043 350.637 316.606Z" fill="#FDFDFD"/>
<path fill-rule="evenodd" clip-rule="evenodd" d="M425.006 177.231V183.481H345.006C345.006 183.481 305.556 175.606 306.706 141.562C306.706 141.562 308.006 177.231 344.225 177.231H425.006Z" fill="#349C42"/>
<path opacity="0.5" fill-rule="evenodd" clip-rule="evenodd" d="M306.862 50.0371V141.043C306.862 151.393 313.762 177.237 345.012 177.237H425.012L306.862 50.0371Z" fill="#FDFDFD"/>
</svg>
