<svg width="500" height="500" viewBox="0 0 500 500" fill="none" xmlns="http://www.w3.org/2000/svg">
<g clip-path="url(#clip0_8_253)">
<path d="M250 450C360.457 450 450 360.457 450 250C450 139.543 360.457 50 250 50C139.543 50 50 139.543 50 250C50 360.457 139.543 450 250 450Z" fill="#FF7A59"/>
<path fill-rule="evenodd" clip-rule="evenodd" d="M293.672 294.117C278.738 294.117 266.625 282.137 266.625 267.356C266.625 252.574 278.734 240.59 293.672 240.59C308.609 240.59 320.727 252.57 320.727 267.356C320.727 282.141 308.617 294.117 293.672 294.117ZM301.773 215.828V192C304.941 190.549 307.629 188.224 309.52 185.297C311.412 182.371 312.428 178.965 312.449 175.481V174.93C312.449 164.859 304.121 156.625 293.953 156.625H293.395C283.238 156.625 274.898 164.863 274.898 174.93V175.481C274.921 178.965 275.937 182.37 277.828 185.296C279.72 188.223 282.407 190.548 285.574 192V215.828C276.453 217.204 267.852 220.947 260.629 226.684L194.574 175.836C195.037 174.163 195.285 172.438 195.313 170.703C195.313 159.293 185.98 150.031 174.453 150C162.926 149.969 153.574 159.215 153.563 170.629C153.551 182.043 162.879 191.285 174.406 191.305C178.017 191.289 181.561 190.335 184.691 188.535L249.684 238.574C243.837 247.283 240.782 257.567 240.927 268.056C241.071 278.545 244.408 288.74 250.492 297.285L230.719 316.856C228.379 316.122 225.909 315.905 223.477 316.218C221.046 316.532 218.711 317.369 216.634 318.671C214.557 319.974 212.787 321.711 211.446 323.764C210.105 325.816 209.225 328.135 208.867 330.56C208.509 332.986 208.68 335.46 209.37 337.812C210.06 340.165 211.252 342.34 212.863 344.188C214.474 346.036 216.467 347.512 218.704 348.515C220.941 349.519 223.369 350.025 225.82 350C235.289 350 242.969 342.399 242.969 333.027C242.952 331.38 242.689 329.745 242.188 328.176L261.719 308.832C270.913 315.801 282.135 319.57 293.672 319.563C322.816 319.563 346.43 296.191 346.43 267.356C346.43 241.254 327.047 219.699 301.77 215.828" fill="#FDFDFD"/>
</g>
<defs>
<clipPath id="clip0_8_253">
<rect width="400" height="400" fill="white" transform="translate(50 50)"/>
</clipPath>
</defs>
</svg>
