<svg width="500" height="500" viewBox="0 0 500 500" fill="none" xmlns="http://www.w3.org/2000/svg">
<path d="M216.489 140.08C229.377 126.652 247.319 118.324 267.162 118.324C293.54 118.324 316.554 133.033 328.81 154.869C339.46 150.11 351.249 147.463 363.653 147.463C411.229 147.463 449.8 186.37 449.8 234.362C449.8 282.36 411.229 321.266 363.653 321.266C357.846 321.266 352.171 320.686 346.684 319.576C335.891 338.827 315.325 351.834 291.719 351.834C281.837 351.834 272.49 349.552 264.168 345.493C253.227 371.228 227.737 389.272 198.029 389.272C167.091 389.272 140.725 369.697 130.604 342.243C126.181 343.182 121.599 343.671 116.897 343.671C80.0618 343.671 50.2 313.502 50.2 276.28C50.2 251.336 63.6167 229.558 83.5512 217.906C79.447 208.462 77.1644 198.039 77.1644 187.082C77.1644 144.276 111.916 109.575 154.779 109.575C179.945 109.575 202.31 121.54 216.489 140.08Z" fill="#00A1E0"/>
<path d="M108.078 254.619C107.828 255.273 108.169 255.41 108.249 255.524C109 256.07 109.763 256.463 110.531 256.901C114.607 259.064 118.455 259.696 122.48 259.696C130.677 259.696 135.765 255.336 135.765 248.317V248.181C135.765 241.692 130.022 239.335 124.631 237.633L123.931 237.405C119.867 236.085 116.36 234.946 116.36 232.271V232.128C116.36 229.84 118.41 228.155 121.586 228.155C125.115 228.155 129.305 229.328 132.003 230.819C132.003 230.819 132.794 231.332 133.084 230.563C133.244 230.153 134.61 226.476 134.752 226.078C134.906 225.645 134.633 225.326 134.354 225.155C131.274 223.283 127.016 222.002 122.611 222.002L121.791 222.008C114.288 222.008 109.051 226.539 109.051 233.034V233.17C109.051 240.018 114.829 242.238 120.243 243.786L121.113 244.054C125.058 245.266 128.457 246.308 128.457 249.086V249.222C128.457 251.761 126.248 253.651 122.685 253.651C121.301 253.651 116.89 253.623 112.125 250.611C111.55 250.276 111.215 250.031 110.771 249.763C110.537 249.615 109.951 249.359 109.695 250.133L108.078 254.619Z" fill="#FDFDFD"/>
<path d="M228.078 254.619C227.827 255.273 228.169 255.41 228.248 255.524C229 256.07 229.763 256.463 230.531 256.901C234.607 259.064 238.455 259.696 242.479 259.696C250.676 259.696 255.765 255.336 255.765 248.317V248.181C255.765 241.692 250.021 239.335 244.631 237.633L243.931 237.405C239.866 236.085 236.36 234.946 236.36 232.271V232.128C236.36 229.84 238.409 228.155 241.585 228.155C245.115 228.155 249.304 229.328 252.002 230.819C252.002 230.819 252.794 231.332 253.084 230.563C253.243 230.153 254.609 226.476 254.752 226.078C254.905 225.645 254.632 225.326 254.353 225.155C251.274 223.283 247.016 222.002 242.61 222.002L241.79 222.008C234.288 222.008 229.051 226.539 229.051 233.034V233.17C229.051 240.018 234.829 242.238 240.242 243.786L241.113 244.054C245.058 245.266 248.462 246.308 248.462 249.086V249.222C248.462 251.761 246.247 253.651 242.684 253.651C241.301 253.651 236.889 253.623 232.125 250.611C231.55 250.276 231.208 250.042 230.776 249.763C230.628 249.666 229.933 249.399 229.694 250.133L228.078 254.619Z" fill="#FDFDFD"/>
<path d="M309.998 240.871C309.998 244.838 309.258 247.964 307.801 250.172C306.361 252.358 304.181 253.422 301.141 253.422C298.095 253.422 295.927 252.364 294.509 250.172C293.075 247.969 292.346 244.838 292.346 240.871C292.346 236.909 293.075 233.79 294.509 231.604C295.927 229.441 298.095 228.388 301.141 228.388C304.181 228.388 306.361 229.441 307.807 231.604C309.258 233.79 309.998 236.909 309.998 240.871ZM316.84 233.516C316.169 231.245 315.121 229.242 313.727 227.574C312.332 225.9 310.567 224.557 308.473 223.578C306.383 222.604 303.913 222.109 301.141 222.109C298.363 222.109 295.893 222.604 293.803 223.578C291.709 224.557 289.944 225.9 288.544 227.574C287.155 229.247 286.107 231.251 285.43 233.516C284.764 235.776 284.428 238.247 284.428 240.871C284.428 243.495 284.764 245.971 285.43 248.225C286.107 250.491 287.149 252.495 288.549 254.168C289.944 255.842 291.714 257.179 293.803 258.13C295.898 259.081 298.363 259.564 301.141 259.564C303.913 259.564 306.378 259.081 308.473 258.13C310.562 257.179 312.332 255.842 313.727 254.168C315.121 252.5 316.169 250.497 316.84 248.225C317.512 245.966 317.848 243.489 317.848 240.871C317.848 238.252 317.512 235.776 316.84 233.516Z" fill="#FDFDFD"/>
<path d="M373.027 252.363C372.8 251.697 372.156 251.948 372.156 251.948C371.16 252.329 370.101 252.682 368.974 252.858C367.83 253.035 366.572 253.126 365.223 253.126C361.91 253.126 359.28 252.141 357.396 250.194C355.506 248.248 354.447 245.1 354.459 240.842C354.47 236.965 355.404 234.051 357.083 231.831C358.751 229.622 361.29 228.49 364.677 228.49C367.5 228.49 369.652 228.814 371.906 229.526C371.906 229.526 372.447 229.759 372.703 229.053C373.3 227.391 373.744 226.201 374.382 224.374C374.564 223.856 374.12 223.634 373.961 223.571C373.073 223.224 370.978 222.661 369.395 222.422C367.915 222.194 366.185 222.074 364.261 222.074C361.386 222.074 358.825 222.564 356.633 223.543C354.448 224.516 352.592 225.86 351.123 227.533C349.655 229.207 348.539 231.211 347.793 233.476C347.053 235.736 346.677 238.218 346.677 240.842C346.677 246.517 348.209 251.105 351.231 254.464C354.26 257.833 358.808 259.547 364.739 259.547C368.246 259.547 371.843 258.835 374.428 257.816C374.428 257.816 374.923 257.577 374.706 257.002L373.027 252.363Z" fill="#FDFDFD"/>
<path d="M384.999 237.071C385.323 234.868 385.932 233.035 386.872 231.606C388.289 229.437 390.452 228.247 393.492 228.247C396.531 228.247 398.541 229.443 399.981 231.606C400.937 233.035 401.353 234.947 401.518 237.071H384.999ZM408.036 232.226C407.455 230.035 406.015 227.821 405.07 226.807C403.578 225.202 402.121 224.081 400.675 223.455C398.786 222.646 396.52 222.111 394.038 222.111C391.146 222.111 388.522 222.595 386.393 223.597C384.259 224.599 382.466 225.965 381.06 227.667C379.654 229.363 378.595 231.384 377.923 233.678C377.246 235.961 376.904 238.448 376.904 241.072C376.904 243.742 377.257 246.229 377.957 248.467C378.663 250.721 379.79 252.707 381.316 254.352C382.836 256.009 384.794 257.307 387.139 258.212C389.467 259.111 392.296 259.578 395.547 259.572C402.235 259.549 405.759 258.058 407.21 257.255C407.466 257.113 407.711 256.863 407.404 256.145L405.89 251.905C405.662 251.273 405.019 251.506 405.019 251.506C403.362 252.121 401.006 253.225 395.512 253.214C391.921 253.208 389.257 252.149 387.589 250.493C385.875 248.797 385.039 246.303 384.891 242.786L408.053 242.808C408.053 242.808 408.662 242.797 408.724 242.205C408.747 241.955 409.521 237.446 408.036 232.226Z" fill="#FDFDFD"/>
<path d="M199.505 237.071C199.835 234.868 200.438 233.035 201.377 231.606C202.795 229.437 204.958 228.247 207.998 228.247C211.037 228.247 213.047 229.443 214.492 231.606C215.443 233.035 215.859 234.947 216.024 237.071H199.505ZM222.536 232.226C221.955 230.035 220.521 227.821 219.576 226.807C218.084 225.202 216.627 224.081 215.181 223.455C213.291 222.646 211.026 222.111 208.544 222.111C205.658 222.111 203.028 222.595 200.899 223.597C198.765 224.599 196.972 225.965 195.566 227.667C194.16 229.363 193.101 231.384 192.429 233.678C191.757 235.961 191.41 238.448 191.41 241.072C191.41 243.742 191.763 246.229 192.463 248.467C193.169 250.721 194.296 252.707 195.822 254.352C197.342 256.009 199.3 257.307 201.645 258.212C203.973 259.111 206.802 259.578 210.052 259.572C216.741 259.549 220.264 258.058 221.716 257.255C221.972 257.113 222.217 256.863 221.91 256.145L220.401 251.905C220.168 251.273 219.524 251.506 219.524 251.506C217.868 252.121 215.517 253.225 210.013 253.214C206.426 253.208 203.762 252.149 202.095 250.493C200.381 248.797 199.544 246.303 199.396 242.786L222.558 242.808C222.558 242.808 223.168 242.797 223.23 242.205C223.253 241.955 224.027 237.446 222.536 232.226Z" fill="#FDFDFD"/>
<path d="M149.44 252.237C148.535 251.514 148.41 251.332 148.102 250.865C147.647 250.153 147.414 249.14 147.414 247.854C147.414 245.816 148.085 244.353 149.48 243.368C149.463 243.374 151.472 241.632 156.197 241.695C159.516 241.74 162.481 242.23 162.481 242.23V252.76H162.487C162.487 252.76 159.544 253.392 156.231 253.591C151.518 253.876 149.423 252.231 149.44 252.237ZM158.656 235.962C157.717 235.894 156.499 235.854 155.041 235.854C153.055 235.854 151.136 236.105 149.338 236.589C147.528 237.072 145.9 237.829 144.499 238.831C143.093 239.839 141.96 241.125 141.141 242.651C140.321 244.176 139.906 245.975 139.906 247.99C139.906 250.039 140.258 251.821 140.964 253.278C141.67 254.741 142.689 255.959 143.987 256.899C145.273 257.838 146.862 258.527 148.706 258.942C150.522 259.358 152.582 259.568 154.836 259.568C157.21 259.568 159.578 259.375 161.872 258.982C164.143 258.595 166.933 258.031 167.707 257.855C168.475 257.673 169.329 257.439 169.329 257.439C169.904 257.297 169.858 256.682 169.858 256.682L169.847 235.501C169.847 230.856 168.606 227.413 166.164 225.278C163.734 223.149 160.153 222.073 155.525 222.073C153.789 222.073 150.994 222.312 149.321 222.648C149.321 222.648 144.26 223.627 142.177 225.255C142.177 225.255 141.721 225.54 141.972 226.177L143.611 230.583C143.816 231.152 144.368 230.959 144.368 230.959C144.368 230.959 144.545 230.891 144.75 230.771C149.207 228.346 154.842 228.42 154.842 228.42C157.347 228.42 159.271 228.921 160.569 229.917C161.832 230.885 162.476 232.348 162.476 235.433V236.412C160.483 236.127 158.656 235.962 158.656 235.962Z" fill="#FDFDFD"/>
<path d="M345.467 224.028C345.644 223.504 345.274 223.254 345.12 223.197C344.727 223.043 342.758 222.627 341.238 222.531C338.329 222.354 336.713 222.844 335.267 223.493C333.832 224.142 332.238 225.189 331.35 226.379V223.561C331.35 223.168 331.071 222.855 330.684 222.855H324.747C324.36 222.855 324.081 223.168 324.081 223.561V258.108C324.081 258.495 324.4 258.813 324.787 258.813H330.872C331.259 258.813 331.572 258.495 331.572 258.108V240.849C331.572 238.532 331.829 236.221 332.341 234.769C332.842 233.335 333.525 232.185 334.367 231.359C335.215 230.54 336.177 229.965 337.231 229.64C338.306 229.31 339.496 229.202 340.339 229.202C341.551 229.202 342.883 229.515 342.883 229.515C343.327 229.566 343.577 229.293 343.725 228.889C344.124 227.83 345.251 224.66 345.467 224.028Z" fill="#FDFDFD"/>
<path d="M288.35 208.016C287.61 207.788 286.938 207.635 286.061 207.47C285.173 207.31 284.114 207.231 282.913 207.231C278.724 207.231 275.422 208.415 273.106 210.748C270.8 213.071 269.235 216.606 268.449 221.256L268.165 222.822H262.905C262.905 222.822 262.267 222.799 262.131 223.494L261.271 228.315C261.209 228.77 261.408 229.061 262.023 229.061H267.14L261.949 258.046C261.544 260.38 261.078 262.298 260.56 263.755C260.053 265.19 259.558 266.266 258.943 267.051C258.351 267.802 257.793 268.36 256.826 268.685C256.029 268.952 255.106 269.078 254.099 269.078C253.541 269.078 252.795 268.986 252.243 268.873C251.697 268.764 251.406 268.645 250.991 268.468C250.991 268.468 250.393 268.241 250.154 268.838C249.966 269.334 248.6 273.085 248.435 273.546C248.276 274.007 248.503 274.366 248.794 274.474C249.477 274.713 249.983 274.872 250.911 275.094C252.198 275.396 253.285 275.413 254.304 275.413C256.433 275.413 258.38 275.111 259.99 274.531C261.607 273.944 263.019 272.926 264.271 271.548C265.62 270.057 266.468 268.497 267.277 266.362C268.079 264.256 268.768 261.638 269.314 258.587L274.534 229.061H282.162C282.162 229.061 282.805 229.083 282.936 228.383L283.801 223.568C283.858 223.106 283.665 222.822 283.044 222.822H275.639C275.678 222.657 276.014 220.05 276.862 217.596C277.227 216.555 277.91 215.706 278.485 215.126C279.054 214.557 279.709 214.152 280.426 213.919C281.16 213.68 281.997 213.566 282.913 213.566C283.608 213.566 284.297 213.646 284.815 213.754C285.532 213.908 285.811 213.987 285.999 214.044C286.756 214.272 286.858 214.05 287.006 213.686L288.776 208.824C288.959 208.301 288.509 208.079 288.35 208.016Z" fill="#FDFDFD"/>
<path d="M184.878 258.109C184.878 258.496 184.599 258.81 184.212 258.81H178.07C177.683 258.81 177.409 258.496 177.409 258.109V208.677C177.409 208.29 177.683 207.977 178.07 207.977H184.212C184.599 207.977 184.878 208.29 184.878 208.677V258.109Z" fill="#FDFDFD"/>
</svg>
