<svg width="500" height="500" viewBox="0 0 500 500" fill="none" xmlns="http://www.w3.org/2000/svg">
<path d="M381.253 237.495C398.51 237.495 412.5 223.505 412.5 206.247C412.5 188.99 398.509 175 381.251 175C363.992 175 350 188.991 350 206.25V237.495H381.253ZM293.75 237.495C311.009 237.495 325 223.504 325 206.245V118.75C325 101.491 311.009 87.5 293.75 87.5C276.491 87.5 262.5 101.491 262.5 118.75V206.245C262.5 223.504 276.491 237.495 293.75 237.495Z" fill="#2EB67D"/>
<path d="M118.747 262.505C101.49 262.505 87.5 276.495 87.5 293.752C87.5 311.01 101.491 325 118.749 325C136.007 325 150 311.009 150 293.75V262.505H118.747ZM206.25 262.505C188.991 262.505 175 276.496 175 293.755V381.25C175 398.509 188.991 412.5 206.25 412.5C223.509 412.5 237.5 398.509 237.5 381.25V293.755C237.5 276.496 223.509 262.505 206.25 262.505Z" fill="#E01E5A"/>
<path d="M262.505 381.253C262.505 398.51 276.495 412.5 293.752 412.5C311.01 412.5 325 398.509 325 381.251C325 363.992 311.009 350 293.75 350H262.505V381.253ZM262.505 293.75C262.505 311.009 276.496 325 293.755 325H381.25C398.509 325 412.5 311.009 412.5 293.75C412.5 276.491 398.509 262.5 381.25 262.5H293.755C276.496 262.5 262.505 276.491 262.505 293.75Z" fill="#ECB22E"/>
<path d="M237.495 118.747C237.495 101.49 223.505 87.5 206.247 87.5C188.99 87.5 175 101.491 175 118.749C175 136.008 188.991 150 206.25 150H237.495V118.747ZM237.495 206.25C237.495 188.991 223.504 175 206.245 175H118.75C101.491 175 87.5 188.991 87.5 206.25C87.5 223.509 101.491 237.5 118.75 237.5H206.245C223.504 237.5 237.495 223.509 237.495 206.25Z" fill="#36C5F0"/>
</svg>
