<svg width="500" height="500" viewBox="0 0 500 500" fill="none" xmlns="http://www.w3.org/2000/svg">
<g clip-path="url(#clip0_8_258)">
<path fill-rule="evenodd" clip-rule="evenodd" d="M258.667 100.766C247.272 98.7607 235.535 100.769 225.455 106.448C215.375 112.128 207.577 121.127 203.389 131.912C199.201 142.698 198.884 154.602 202.49 165.595C206.097 176.588 213.404 185.991 223.167 192.2C226.891 194.575 229.521 198.331 230.477 202.644C231.433 206.957 230.638 211.473 228.267 215.2L162.9 317.916C166.294 324.422 167.447 331.865 166.18 339.093C164.913 346.32 161.296 352.927 155.891 357.89C150.486 362.853 143.595 365.893 136.286 366.54C128.977 367.186 121.658 365.403 115.466 361.467C109.273 357.531 104.553 351.661 102.036 344.768C99.5196 337.876 99.3476 330.345 101.547 323.345C103.746 316.345 108.194 310.266 114.2 306.051C120.206 301.836 127.436 299.721 134.767 300.033L192.1 209.95C181.757 199.958 174.176 187.46 170.094 173.671C166.011 159.882 165.567 145.271 168.804 131.259C172.041 117.247 178.848 104.311 188.565 93.7097C198.281 83.1081 210.576 75.2013 224.253 70.7584C237.931 66.3155 252.525 65.4876 266.617 68.3554C280.709 71.2231 293.819 77.6888 304.672 87.1236C315.525 96.5585 323.752 108.641 328.552 122.197C333.353 135.753 334.563 150.321 332.067 164.483C331.686 166.639 330.884 168.699 329.707 170.545C328.53 172.391 327.002 173.987 325.208 175.242C323.414 176.497 321.391 177.387 319.253 177.86C317.116 178.333 314.906 178.38 312.75 178C310.594 177.619 308.534 176.817 306.688 175.64C304.842 174.463 303.246 172.934 301.991 171.141C300.736 169.347 299.846 167.324 299.373 165.186C298.9 163.049 298.853 160.839 299.233 158.683C301.535 145.626 298.555 132.189 290.951 121.328C283.347 110.467 271.723 103.071 258.667 100.766ZM216.667 150C216.67 144.949 217.822 139.965 220.034 135.425C222.246 130.885 225.46 126.906 229.435 123.79C233.41 120.675 238.041 118.503 242.978 117.439C247.915 116.375 253.03 116.447 257.935 117.649C262.84 118.851 267.408 121.152 271.294 124.379C275.18 127.605 278.281 131.672 280.365 136.273C282.448 140.874 283.459 145.888 283.321 150.937C283.183 155.985 281.899 160.936 279.567 165.416L336.9 255.5C350.616 250.251 365.476 248.72 379.974 251.063C394.472 253.405 408.093 259.537 419.459 268.838C430.824 278.139 439.53 290.278 444.694 304.026C449.858 317.774 451.297 332.643 448.866 347.126C446.434 361.61 440.218 375.193 430.848 386.501C421.477 397.809 409.285 406.44 395.505 411.519C381.725 416.599 366.848 417.947 352.38 415.426C337.912 412.906 324.367 406.606 313.117 397.166C309.836 394.295 307.81 390.253 307.475 385.906C307.14 381.559 308.521 377.253 311.323 373.913C314.125 370.573 318.124 368.463 322.463 368.037C326.802 367.611 331.135 368.902 334.533 371.633C341.612 377.568 350.197 381.426 359.335 382.779C368.473 384.132 377.807 382.927 386.302 379.297C394.796 375.668 402.12 369.756 407.459 362.218C412.798 354.68 415.945 345.81 416.55 336.592C417.155 327.375 415.195 318.17 410.886 309.998C406.578 301.827 400.09 295.009 392.143 290.3C384.195 285.592 375.098 283.177 365.862 283.324C356.626 283.471 347.61 286.174 339.817 291.133C336.088 293.503 331.57 294.295 327.258 293.336C322.945 292.376 319.189 289.744 316.817 286.016L251.433 183.3C246.94 183.493 242.453 182.775 238.244 181.189C234.036 179.603 230.191 177.181 226.943 174.07C223.695 170.958 221.11 167.222 219.344 163.085C217.578 158.949 216.667 154.497 216.667 150ZM126.2 265C127.708 269.153 127.505 273.734 125.636 277.738C123.767 281.741 120.385 284.839 116.233 286.35C107.64 289.481 100.07 294.909 94.3471 302.043C88.6243 309.178 84.9681 317.745 83.7763 326.814C82.5846 335.882 83.903 345.103 87.588 353.474C91.2731 361.845 97.1836 369.045 104.676 374.29C112.169 379.535 120.957 382.624 130.083 383.222C139.21 383.819 148.326 381.902 156.438 377.679C164.551 373.455 171.35 367.088 176.095 359.269C180.84 351.45 183.349 342.479 183.35 333.333C183.35 328.913 185.106 324.673 188.232 321.548C191.357 318.422 195.596 316.666 200.017 316.666H337.783C341.452 310.312 347.116 305.345 353.895 302.537C360.674 299.729 368.19 299.236 375.278 301.135C382.366 303.035 388.629 307.219 393.096 313.041C397.563 318.862 399.984 325.995 399.984 333.333C399.984 340.671 397.563 347.804 393.096 353.625C388.629 359.447 382.366 363.631 375.278 365.531C368.19 367.43 360.674 366.937 353.895 364.129C347.116 361.321 341.452 356.354 337.783 350H215C212.094 364.239 205.515 377.47 195.915 388.381C186.315 399.292 174.029 407.503 160.276 412.199C146.523 416.894 131.781 417.912 117.513 415.15C103.245 412.388 89.9473 405.943 78.9398 396.454C67.9324 386.965 59.5977 374.763 54.7631 361.058C49.9284 347.353 48.7619 332.622 51.3793 318.327C53.9967 304.032 60.3069 290.67 69.6838 279.567C79.0606 268.464 91.178 260.006 104.833 255.033C108.986 253.519 113.57 253.717 117.577 255.583C121.584 257.449 124.686 260.847 126.2 265Z" fill="#00FF88"/>
</g>
<defs>
<clipPath id="clip0_8_258">
<rect width="400" height="400" fill="white" transform="translate(50 50)"/>
</clipPath>
</defs>
</svg>
