<svg width="500" height="500" viewBox="0 0 500 500" fill="none" xmlns="http://www.w3.org/2000/svg">
<path d="M250.125 50C261.424 50.0208 272.535 50.9755 283.337 52.7812V169.219L365.886 86.8823C375.003 93.3579 383.533 100.56 391.418 108.426C399.308 116.293 406.55 124.823 413.042 133.914L330.489 216.25H447.231C449.043 227.022 450 238.065 450 249.355V249.625C450 260.916 449.043 271.979 447.231 282.751H330.469L413.042 365.066C406.55 374.157 399.308 382.688 391.442 390.554H391.418C383.533 398.42 375.003 405.643 365.91 412.098L283.337 329.761V446.199C272.555 448.005 261.443 448.958 250.145 448.982H249.855C238.553 448.958 227.485 448.005 216.683 446.199V329.761L134.134 412.098C115.903 399.167 99.9647 383.248 86.978 365.066L169.531 282.751H52.7888C50.9574 271.958 50 260.854 50 249.563V248.983C50.019 246.053 50.2108 242.474 50.4864 238.77L50.5715 237.656C51.3875 227.232 52.7888 216.25 52.7888 216.25H169.531L86.978 133.914C93.4495 124.823 100.672 116.313 108.558 108.468L108.597 108.426C116.467 100.56 125.017 93.3579 134.134 86.8823L216.683 169.219V52.7812C227.485 50.9755 238.576 50.0208 249.895 50H250.125ZM250.105 199.625H249.915C235.057 199.625 220.826 202.344 207.673 207.284C202.743 220.381 200.013 234.577 199.994 249.397V249.583C200.013 264.403 202.743 278.6 207.693 291.696C220.826 296.636 235.057 299.355 249.915 299.355H250.105C264.963 299.355 279.193 296.636 292.327 291.696C297.277 278.579 300.006 264.403 300.006 249.583V249.397C300.006 234.577 297.277 220.381 292.327 207.284C279.193 202.344 264.963 199.625 250.105 199.625Z" fill="#FF4A00"/>
</svg>
